<svg xmlns="http://www.w3.org/2000/svg" viewBox="0 0 800 600" width="800" height="600">
  <defs>
    <linearGradient id="bg" x1="0" y1="0" x2="0" y2="1">
      <stop offset="0%" stop-color="#1a2a1a"/>
      <stop offset="60%" stop-color="#122012"/>
      <stop offset="100%" stop-color="#0a180a"/>
    </linearGradient>
    <linearGradient id="ground" x1="0" y1="0" x2="0" y2="1">
      <stop offset="0%" stop-color="#0e160e"/>
      <stop offset="100%" stop-color="#080e08"/>
    </linearGradient>
    <linearGradient id="carBody" x1="0" y1="0" x2="0" y2="1">
      <stop offset="0%" stop-color="#2a5530"/>
      <stop offset="40%" stop-color="#1e4025"/>
      <stop offset="100%" stop-color="#15301a"/>
    </linearGradient>
    <linearGradient id="glass" x1="0" y1="0" x2="0" y2="1">
      <stop offset="0%" stop-color="#3a5848"/>
      <stop offset="100%" stop-color="#253830"/>
    </linearGradient>
    <radialGradient id="shadow" cx="0.5" cy="0.5" r="0.5">
      <stop offset="0%" stop-color="rgba(0,0,0,0.5)"/>
      <stop offset="100%" stop-color="rgba(0,0,0,0)"/>
    </radialGradient>
    <linearGradient id="rim" x1="0" y1="0" x2="1" y2="1">
      <stop offset="0%" stop-color="#777"/>
      <stop offset="100%" stop-color="#444"/>
    </linearGradient>
  </defs>
  <rect width="800" height="600" fill="url(#bg)"/>
  <rect x="0" y="430" width="800" height="170" fill="url(#ground)"/>
  <line x1="0" y1="430" x2="800" y2="430" stroke="#1a2a1a" stroke-width="1"/>
  <ellipse cx="400" cy="435" rx="280" ry="20" fill="url(#shadow)"/>
  <!-- SUV body -->
  <path d="M130,390 L130,340 L145,330 L170,320 L200,260 L260,230 L330,220 L450,218 L520,222 L560,235 L590,260 L620,285 L650,310 L670,330 L680,350 L680,390 L660,405 L630,410 L600,410 L580,405 L540,405 L280,405 L250,405 L220,410 L190,410 L160,405 L130,405 Z" fill="url(#carBody)" stroke="#3a6540" stroke-width="0.5"/>
  <path d="M145,360 L280,345 L520,340 L665,355" fill="none" stroke="#2a5030" stroke-width="1" opacity="0.6"/>
  <path d="M135,390 L150,375 L260,368 L540,365 L665,375 L675,390" fill="none" stroke="#1a3820" stroke-width="1.5"/>
  <path d="M208,258 L260,236 L330,226 L390,224 L390,290 L215,305 Z" fill="url(#glass)" stroke="#3a5838" stroke-width="0.5" opacity="0.9"/>
  <path d="M400,224 L520,228 L555,240 L585,265 L610,290 L610,315 L400,290 Z" fill="url(#glass)" stroke="#3a5838" stroke-width="0.5" opacity="0.9"/>
  <path d="M200,260 L210,258 L215,305 L200,310 L185,318 Z" fill="url(#glass)" stroke="#3a5838" stroke-width="0.5" opacity="0.8"/>
  <line x1="395" y1="222" x2="395" y2="292" stroke="#15301a" stroke-width="3"/>
  <path d="M180,260 L200,260 L185,320 L170,320 Z" fill="#1a3520" stroke="#2a4a2a" stroke-width="0.5"/>
  <path d="M660,325 L678,332 L678,355 L660,360 Z" fill="#e8e8a0" opacity="0.7"/>
  <path d="M135,335 L148,332 L148,370 L135,374 Z" fill="#cc2020" opacity="0.8"/>
  <path d="M210,220 L540,218" fill="none" stroke="#3a5530" stroke-width="2.5" stroke-linecap="round"/>
  <g transform="translate(565, 405)">
    <circle cx="0" cy="0" r="42" fill="#111"/>
    <circle cx="0" cy="0" r="36" fill="url(#rim)"/>
    <circle cx="0" cy="0" r="30" fill="#222"/>
    <line x1="0" y1="-26" x2="0" y2="26" stroke="#666" stroke-width="3"/>
    <line x1="-26" y1="0" x2="26" y2="0" stroke="#666" stroke-width="3"/>
    <line x1="-18" y1="-18" x2="18" y2="18" stroke="#666" stroke-width="3"/>
    <line x1="18" y1="-18" x2="-18" y2="18" stroke="#666" stroke-width="3"/>
    <circle cx="0" cy="0" r="10" fill="#555"/>
    <circle cx="0" cy="0" r="5" fill="#333"/>
  </g>
  <g transform="translate(210, 405)">
    <circle cx="0" cy="0" r="42" fill="#111"/>
    <circle cx="0" cy="0" r="36" fill="url(#rim)"/>
    <circle cx="0" cy="0" r="30" fill="#222"/>
    <line x1="0" y1="-26" x2="0" y2="26" stroke="#666" stroke-width="3"/>
    <line x1="-26" y1="0" x2="26" y2="0" stroke="#666" stroke-width="3"/>
    <line x1="-18" y1="-18" x2="18" y2="18" stroke="#666" stroke-width="3"/>
    <line x1="18" y1="-18" x2="-18" y2="18" stroke="#666" stroke-width="3"/>
    <circle cx="0" cy="0" r="10" fill="#555"/>
    <circle cx="0" cy="0" r="5" fill="#333"/>
  </g>
  <rect x="370" y="320" width="25" height="4" rx="2" fill="#3a6540"/>
  <path d="M610,290 L628,284 L630,296 L614,300 Z" fill="#1e4025" stroke="#2a5530" stroke-width="0.5"/>
</svg>